<svg version="1.1" id="svg2" xmlns="http://www.w3.org/2000/svg" x="0" y="0" viewBox="0 0 844.9 1000" style="enable-background:new 0 0 844.9 1000" xml:space="preserve"><style>.st0{fill:#fff}.st1{fill:#254aa5}.st2{fill:none;stroke:#fff;stroke-width:2.835;stroke-linejoin:bevel;stroke-miterlimit:10}</style><g id="g20" transform="translate(366.822 390.45)"><path id="path22" class="st0" d="M356-150.2c26.3-64.4 57.1-135.3 91.4-210.6 3-6.6 2.4-14.4-1.7-20.4-3.9-5.8-10.4-9.2-17.3-9.2h-1.1l-78.8 4c-8.6.4-16 6-18.8 14.1-.7 2.1-1.5 4.3-2.2 6.4-5 .9-9.6 3.6-12.8 7.9-67.6 89.5-207.1 105.4-264 108.1-11.1.5-22.1.8-32.6.8-56.4 0-159.2-8.5-214.4-65.2-3.9-3.9-8.9-6-14.1-6.2-1.5-3-3-5.9-4.5-8.8-.1-.2-.2-.5-.4-.7-.2-.3-.9-1.7-2.6-4.9-3.6-7-10.8-11.3-18.6-11.3-.7 0-1.4 0-2.1.1l-78.6 7.9c-7.4.7-13.9 5.4-17 12.2-3.1 6.8-2.3 14.8 2.1 20.8.5.6 46.9 65.6 96 160.7-55.2 68-85.6 153.6-85.6 241.3 0 97.4 36.6 190.2 103 261.3 66.1 70.8 155.5 113.6 251.8 120.7h.2c3.8.3 7.8.5 12.3.7.9 0 1.9.1 2.9.1 4.9.2 9 .2 12.8.2 3.9 0 7.9-.1 12.8-.2 1 0 1.9-.1 2.9-.1 4.5-.2 8.5-.4 12.3-.7h.2c96.3-7 185.7-49.9 251.8-120.7 66.5-71.1 103.1-164 103.1-261.4 0-89-31.2-175.8-88-244.3-.4-.4-.7-.8-1.1-1.1v-.1c.2-.5.5-.9.7-1.4"/></g><g id="g52" transform="translate(134.112 144.528)"><path id="path54" class="st1" d="M-114.3 838.6h29.2c6.1 0 8.5-4.2 8.5-9.1 0-6.1-3.6-9.3-10.5-9.3h-27.2v18.4zm0-31.8h27.6c4.6 0 7.5-2.6 7.5-8.3 0-4.9-2-8.3-10.2-8.3h-24.8v16.6zm-19.8-30.7h54.7c10.6 0 20.5 5.2 20.5 19.5 0 5.9-2.9 13.2-9.7 15.5v.2c8.5 1.5 13 10.4 13 18.7 0 10.3-4.5 23.4-26.5 23.4h-52v-77.3z"/></g><g id="g56" transform="translate(163.657 153.907)"><path id="path58" class="st1" d="M-54.6 800.9h26.2c4.4 0 9.5-2.6 9.5-9.8 0-7.7-5.7-9.6-10.5-9.6h-25.2v19.4zm-19.8-34.2h53c20.2 0 23.6 13.1 23.6 21 0 9.4-3.6 15.5-11.8 18.6v.2c8.7 1.4 10 13.1 10 20.7 0 3.8.3 12.9 3.8 16.8h-21.6c-1.8-3.6-1.9-6.7-1.9-14.8 0-10.8-4.4-13.5-10.5-13.5h-24.6V844h-19.8v-77.3z"/></g><g id="g60" transform="translate(199.894 159.706)"><path id="path62" class="st1" d="M18.6 777.6 7.2 808.2h22.9l-11.5-30.6zm16.8 44.6H1.9L-4 838.1h-21.3l32.1-77.2h23.9l32.1 77.2H41.3l-5.9-15.9z"/></g><g id="g64" transform="translate(233.462 157.81)"><path id="path66" class="st1" d="M86.5 785.2c-1.2-10.1-10.3-11.1-18.3-11.1-8.2 0-13.5 3.9-13.5 9.1 0 4.1 3.3 6.4 8.4 7.2l24.8 4.2c13.3 2.3 23.4 7.6 23.4 21.6 0 14.4-9.2 26-37.9 26-17.8 0-40.8-2.4-41-26.5h22.3c.2 10.6 10.2 12.4 18.8 12.4 9.3 0 15.6-2.9 15.6-9.6 0-5.9-4.5-7.6-12.4-8.9l-18.1-2.9c-12.7-2.1-24.9-6.1-24.9-21.8 0-17.2 13.3-24.2 36.1-24.2 15 0 37.3 2.7 38.6 24.5H86.5z"/></g><path id="path68" class="st1" d="M356.4 920.6h19.8v77.2h-19.8v-77.2z"/><g id="g70" transform="translate(257.533 165.22)"><path id="path72" class="st1" d="M135.1 755.4h19.8v61.9h44.4v15.4h-64.2v-77.3z"/></g><g id="g74" transform="translate(282.785 165.22)"><path id="path76" class="st1" d="M186.1 755.4h68.1v14.7h-48.3v16h45.8v14.1h-45.8v17.7h48.7v14.7h-68.5v-77.2z"/></g><path id="path78" class="st1" d="M550.9 920.6h19.8v77.2h-19.8v-77.2z"/><g id="g80" transform="translate(328.486 153.907)"><path id="path82" class="st1" d="M278.5 800.9h26.2c4.4 0 9.5-2.6 9.5-9.8 0-7.7-5.7-9.6-10.5-9.6h-25.2v19.4zm-19.8-34.2h53c20.2 0 23.6 13.1 23.6 21 0 9.4-3.6 15.5-11.8 18.6v.2c8.7 1.4 10 13.1 10 20.7 0 3.8.3 12.9 3.8 16.8h-21.6c-1.8-3.6-1.9-6.7-1.9-14.8 0-10.8-4.4-13.5-10.5-13.5h-24.6V844h-19.8v-77.3z"/></g><g id="g84" transform="translate(364.049 159.706)"><path id="path86" class="st1" d="m350.3 777.6-11.4 30.6h22.9l-11.5-30.6zm-25.1-22.2c2.3-8.7 6.7-14.9 14.6-14.9 5.3 0 16.1 4.8 22.3 4.8 2.8 0 4.6-1.2 5-4.2h8.4c-1 8.2-4.5 14.8-13.3 14.8-5.8 0-19.3-5.4-23.2-5.4-2.7 0-4.2 2.4-5 5h-8.8zm41.9 66.8h-33.5l-5.9 15.9h-21.3l32.1-77.2h23.9l32.1 77.2H373l-5.9-15.9z"/></g><g id="g88" transform="translate(392.241 143.813)"><path id="path90" class="st1" d="M407.3 841.5c18 0 24.3-14.1 24.3-26.1s-6.3-26.1-24.3-26.1-24.3 14.1-24.3 26.1 6.3 26.1 24.3 26.1m0-66.8c39.2 0 45.3 24.7 45.3 40.8 0 16.1-6.1 40.8-45.3 40.8-39.2 0-45.3-24.7-45.3-40.8 0-16.2 6.1-40.8 45.3-40.8"/></g><g id="g108" transform="translate(240.482 204.559)"><path id="path110" class="st0" d="M100.6 597.2c.7-4.4-3-5.9-6.3-6.9-3.4-1-6.1 0-6.7 2.2-.5 1.7.6 3.1 2.7 4l9.9 4.7c5.3 2.5 8.9 6 7.2 11.9-1.7 6-7 9.8-19 6.4-7.5-2.1-16.9-5.9-14.1-16l9.3 2.7c-1.2 4.5 2.8 6.4 6.4 7.5 3.9 1.1 6.9.6 7.7-2.2.7-2.5-1-3.7-4.1-5.2l-7.2-3.4c-5.1-2.4-9.7-5.5-7.9-12.1 2.1-7.2 8.5-8.6 18.1-5.9 6.3 1.8 15.3 5.6 13.3 14.9l-9.3-2.6z"/></g><g id="g112" transform="translate(240.482 204.559)"><path id="path114" class="st2" d="M100.6 597.2c.7-4.4-3-5.9-6.3-6.9-3.4-1-6.1 0-6.7 2.2-.5 1.7.6 3.1 2.7 4l9.9 4.7c5.3 2.5 8.9 6 7.2 11.9-1.7 6-7 9.8-19 6.4-7.5-2.1-16.9-5.9-14.1-16l9.3 2.7c-1.2 4.5 2.8 6.4 6.4 7.5 3.9 1.1 6.9.6 7.7-2.2.7-2.5-1-3.7-4.1-5.2l-7.2-3.4c-5.1-2.4-9.7-5.5-7.9-12.1 2.1-7.2 8.5-8.6 18.1-5.9 6.3 1.8 15.3 5.6 13.3 14.9l-9.3-2.6z"/></g><g id="g116" transform="translate(250.875 208.654)"><path id="path118" class="st0" d="m121.6 580.8 9.4 1.6-7.4 5.6-7-1.2 5-6zm-14.7 6.5 29.3 4.9-1.1 6.3-20.8-3.5-1.1 6.9 19.7 3.3-1 6.1-19.7-3.3-1.3 7.6 21 3.5-1.1 6.3-29.5-4.9 5.6-33.2z"/></g><g id="g120" transform="translate(250.875 208.654)"><path id="path122" class="st2" d="m121.6 580.8 9.4 1.6-7.4 5.6-7-1.2 5-6zm-14.7 6.5 29.3 4.9-1.1 6.3-20.8-3.5-1.1 6.9 19.7 3.3-1 6.1-19.7-3.3-1.3 7.6 21 3.5-1.1 6.3-29.5-4.9 5.6-33.2z"/></g><g id="g124" transform="translate(259.778 199.607)"><path id="path126" class="st0" d="m139.6 617.1 11.4.6c1.9.1 4.2-.9 4.4-4.1.2-3.3-2.3-4.3-4.4-4.4l-11-.6-.4 8.5zm-7.8-15.3 23.1 1.2c8.8.5 10 6.2 9.8 9.7-.2 4.1-1.9 6.7-5.6 7.8v.1c3.8.8 4.1 5.9 3.9 9.2-.1 1.6-.2 5.6 1.3 7.4l-9.4-.5c-.7-1.6-.7-3-.5-6.5.2-4.7-1.6-6-4.3-6.1l-10.7-.6-.6 12.3-8.6-.5 1.6-33.5z"/></g><g id="g128" transform="translate(259.778 199.607)"><path id="path130" class="st2" d="m139.6 617.1 11.4.6c1.9.1 4.2-.9 4.4-4.1.2-3.3-2.3-4.3-4.4-4.4l-11-.6-.4 8.5zm-7.8-15.3 23.1 1.2c8.8.5 10 6.2 9.8 9.7-.2 4.1-1.9 6.7-5.6 7.8v.1c3.8.8 4.1 5.9 3.9 9.2-.1 1.6-.2 5.6 1.3 7.4l-9.4-.5c-.7-1.6-.7-3-.5-6.5.2-4.7-1.6-6-4.3-6.1l-10.7-.6-.6 12.3-8.6-.5 1.6-33.5z"/></g><g id="g132" transform="translate(269.725 204.27)"><path id="path134" class="st0" d="m159.7 598.4 8.6-.3 1 33.7-8.6.3-1-33.7z"/></g><g id="g136" transform="translate(269.725 204.27)"><path id="path138" class="st2" d="m159.7 598.4 8.6-.3 1 33.7-8.6.3-1-33.7z"/></g><g id="g140" transform="translate(274.61 204.356)"><path id="path142" class="st0" d="m169.6 598.1 29.6-3.2.7 6.4-21 2.3.7 6.9 19.9-2.1.7 6.1-19.9 2.1.8 7.7 21.1-2.3.7 6.4-29.7 3.2-3.6-33.5z"/></g><g id="g144" transform="translate(274.61 204.356)"><path id="path146" class="st2" d="m169.6 598.1 29.6-3.2.7 6.4-21 2.3.7 6.9 19.9-2.1.7 6.1-19.9 2.1.8 7.7 21.1-2.3.7 6.4-29.7 3.2-3.6-33.5z"/></g><g id="g148" transform="translate(296.96 205.828)"><path id="path150" class="st0" d="m214.8 592.1-1.2 14.2 9.6-2.7-8.4-11.5zm12.3 16.8-14.1 4-.6 7.4-9 2.5 4.3-36.2 10-2.8 22.6 28.6-9 2.5-4.2-6z"/></g><g id="g152" transform="translate(296.96 205.828)"><path id="path154" class="st2" d="m214.8 592.1-1.2 14.2 9.6-2.7-8.4-11.5zm12.3 16.8-14.1 4-.6 7.4-9 2.5 4.3-36.2 10-2.8 22.6 28.6-9 2.5-4.2-6z"/></g><g id="g156"><g id="g158"><g id="g164"><g id="g166"><linearGradient id="path176_1_" gradientUnits="userSpaceOnUse" x1="167.59" y1="803.478" x2="169.855" y2="803.478" gradientTransform="matrix(145.1615 0 0 -145.1615 -24064.035 117154.11)"><stop offset="0" style="stop-color:#aa9402"/><stop offset=".5" style="stop-color:#dcbf03"/><stop offset="1" style="stop-color:#aa9402"/></linearGradient><path id="path176" d="M263.5 490.9c47.1 58.4 89.1 123 89.1 199 0 46.5-15.7 105.5-28 144.2 32.8 9.8 67.5 15.1 103.5 15.1 35.9 0 70.5-5.3 103.2-15-12.2-38.7-28-97.7-28-144.3 0-76 42.1-140.6 89.1-199L428 190.9l-164.5 300zm50.5-5.1c0-62.9 51-114 113.9-114 62.9 0 113.9 51 113.9 114 0 62.9-51 113.9-113.9 113.9-62.9 0-113.9-51-113.9-113.9" style="fill:url(#path176_1_)"/></g></g></g></g><g id="g178"><g id="g180"><g id="g186"><g id="g188"><linearGradient id="path198_1_" gradientUnits="userSpaceOnUse" x1="168.79" y1="803.877" x2="171.055" y2="803.877" gradientTransform="scale(252.1587 -252.1587) rotate(45 1057.12 198.555)"><stop offset="0" style="stop-color:#7b7979"/><stop offset=".561" style="stop-color:#e9e9e9"/><stop offset="1" style="stop-color:#7b7979"/></linearGradient><path id="path198" d="M418.5 161.5c-159.7 7.6-232.6-39.4-263-70.7 54.7 108.9 95.3 214.9 120.6 315.3 2.8 10.9 5.3 21.7 7.7 32.5l137.7-251.2 6.5-11.9 6.5 11.9L575.2 444c22.2-87.1 59.8-212 123.1-399-27.1 35.8-103 108.1-279.8 116.5" style="fill:url(#path198_1_)"/></g></g></g></g><g id="g200"><g id="g202"><g id="g208"><g id="g210"><linearGradient id="path218_1_" gradientUnits="userSpaceOnUse" x1="167.998" y1="803.307" x2="170.263" y2="803.307" gradientTransform="scale(71.1563 -71.1563) rotate(45 1069.37 201.962)"><stop offset="0" style="stop-color:#7b7979"/><stop offset="1" style="stop-color:#c4c3c3"/></linearGradient><path id="path218" d="M510.7 689.9c0 22.1 3.7 47.2 8.9 71.7 12.8-4.3 25.2-9.4 37.1-15.3-7.2-36.2-13.1-75.3-13.1-106.6 0-19.6 1-42.6 6.1-76-22.6 38.1-39 80.2-39 126.2" style="fill:url(#path218_1_)"/></g></g></g></g><g id="g220"><g id="g222"><g id="g228"><g id="g230"><linearGradient id="path238_1_" gradientUnits="userSpaceOnUse" x1="166.456" y1="804.914" x2="168.722" y2="804.914" gradientTransform="scale(59.3302 -59.3302) rotate(45 1071.611 200.95)"><stop offset="0" style="stop-color:#7b7979"/><stop offset="1" style="stop-color:#c4c3c3"/></linearGradient><path id="path238" d="M307.8 651.8c-.4 36.7-3.3 68.3-7.4 94.9 11.6 5.7 23.6 10.7 35.9 14.8 5.2-24.5 8.8-49.5 8.8-71.6 0-32-5.9-71.8-41.7-130.3 3.3 31.6 4.7 62.4 4.4 92.2" style="fill:url(#path238_1_)"/></g></g></g></g><g id="g240"><g id="g242"><g id="g248"><g id="g250"><linearGradient id="path260_1_" gradientUnits="userSpaceOnUse" x1="168.781" y1="803.194" x2="171.047" y2="803.194" gradientTransform="scale(296.1158 -296.1158) rotate(45 1057.109 198.586)"><stop offset="0" style="stop-color:#7b7979"/><stop offset=".561" style="stop-color:#e9e9e9"/><stop offset="1" style="stop-color:#7b7979"/></linearGradient><path id="path260" d="M716.4 24.9C647 228.4 606.1 363.4 582.7 457.8l16.2 29.6 2.4 4.4-3.1 3.9c-11.4 14.1-22.8 29-33.5 44.7-7.7 42.4-10.4 73.5-10.4 99.4 0 29.3 5.5 66.5 12.4 101.4 9.9-5.4 19.4-11.5 28.6-18-4.9-21.5-8.6-43.2-9.6-63-1.8-24-.8-43.6 1-58.2 4.8-41.1 22.4-123.6 80.7-277.9l2.2-5.9c8.2-21.4 16.9-43.9 26.1-66.6l7.8-19.3v.1c25-61.3 55.2-131.3 91.8-211.4l-78.9 3.9z" style="fill:url(#path260_1_)"/></g></g></g></g><g id="g262"><g id="g264"><g id="g270"><g id="g272"><linearGradient id="path282_1_" gradientUnits="userSpaceOnUse" x1="167.988" y1="804.559" x2="170.254" y2="804.559" gradientTransform="scale(164.3397 -164.3397) rotate(45 1059.18 198.348)"><stop offset="0" style="stop-color:#7b7979"/><stop offset=".561" style="stop-color:#e9e9e9"/><stop offset="1" style="stop-color:#7b7979"/></linearGradient><path id="path282" d="M51.7 72.9s47.2 65.6 97.7 163.5l.1-.1 4.4 8.8c11.7 23.1 23.5 47.8 34.9 73.7l1.5 3.5C243 443.6 285.7 591.7 263.7 725c8.6 6 17.5 11.5 26.7 16.5 3.8-25.7 6.5-55.9 6.8-90.7.3-35.8-1.9-72.9-6.7-111.2-9.3-13.7-20.1-28.3-32.8-44l-3.1-3.9 2.4-4.4 18.9-34.5c-3.1-14.8-6.6-29.8-10.4-44.8-27.1-107-71.6-220.5-132.3-337.2-.5-.9-1.7-3.1-3-5.7l-78.5 7.8z" style="fill:url(#path282_1_)"/></g></g></g></g><g id="g284"><g id="g286"><g id="g292"><g id="g294"><linearGradient id="path304_1_" gradientUnits="userSpaceOnUse" x1="167.202" y1="804.041" x2="169.467" y2="804.041" gradientTransform="matrix(92.8203 0 0 -92.8203 -15196.878 75117.117)"><stop offset="0" style="stop-color:#aa9402"/><stop offset=".5" style="stop-color:#dcbf03"/><stop offset="1" style="stop-color:#aa9402"/></linearGradient><path id="path304" d="M324.9 465.3c-11.3 56.9 25.6 112.3 82.6 123.6 56.9 11.3 112.3-25.6 123.6-82.6 11.3-56.9-25.7-112.3-82.6-123.6-6.9-1.4-13.8-2-20.6-2-49.2 0-93.1 34.6-103 84.6" style="fill:url(#path304_1_)"/></g></g></g></g><g id="g308"><g id="g314" transform="translate(294.969 299.09)"><path id="path316" class="st0" d="M210.8 217.1c-.1-1.1.1-2.2.6-3.1 2.7-4.5 9.2-17.1 11.2-35.7 0-.2.4-.9.7-1 .9-.3 1.7-.6 2.4-.9 1 9.5.6 19.1-1.2 28.4-2.6 13.2-8.1 25.8-16.1 36.6 3.4-10.2 2.8-20.2 2.4-24.3m-37.6 50.2c-.4.2-1 .3-1.7.1-5.9-2.3-13.9-9.4-17.2-12.4-.3-.2-.2-.7-.1-.8 13.2-15.2 20.3-29.4 22.1-33.4.2-.4.5-.6.9-.6 3.8 0 17.2-.3 30.9-3.4h.1l.1.1c1.6 13.3-1.8 23.5-3.4 27.3-.3.8-.9 1.7-1.1 1.9-2.3 2.7-11.3 12.3-30.6 21.2m-1.1 3.6c.5-.5 1.1-1.1 1.9-1.4.5-.2 7.8-3.6 15.8-8.9-5.7 4.4-11.9 8.1-18.4 11.1.3-.3.5-.5.7-.8m-64.4-15.5c.1-.1.5-.2 1.6 0l.3.1c3.3.7 8.6 1.5 15.4 1.9 8.8.5 17.5 0 25.7-1.3.3-.1.6-.1.8 0 .2 0 .3.1.4.2l.1.2c8.1 8 15.3 11.9 18 13.2v.2c-1.5 1.7-3.2 3.3-5.1 4.7a93.004 93.004 0 0 1-50 3.8c-6.7-1.4-13.4-3.5-19.7-6.3-1.5-1.2-2.7-2.4-3.8-3.7-.1-.1-.1-.2-.2-.2 5-2.3 13.9-10.4 16.5-12.8M54 214.3c1.6.6 3.7 1.2 6.4 1.7 8.5 1.7 19.7 2.5 23.1 2.7.1 0 .2.1.3.3 2.8 6.7 11.1 22.6 21.9 34.7 0 0 0 .1-.2.3-9.8 9.1-14.5 11.5-16.1 12-.1 0-.5.1-1 0-.1 0-.2 0-.3-.1-10.7-3.7-23.3-16.1-28.3-21.2-.8-1-1.5-2-2.2-3-2.4-7-3.7-13.4-4.1-18.9-.2-4.4.2-7.2.5-8.5m-7.8-16.1c2.3 7.1 4.8 12.7 5.6 14.2 0 .1.1.6 0 .8-1.3 8.1.1 16.2 1.6 21.9-11.1-18.2-15.6-39.6-12.8-60.8.5.2 1 .3 1.3.4-.2 6.6 1.3 14.4 4.3 23.5m14.9-60.6c0 .2-.2.8-.3.9C48.4 153 43.5 168 42.2 172.6c-.5-.2-.9-.4-1.4-.5.2-1.2.4-2.3.6-3.5 3.2-15.8 10.3-30.5 20.8-42.6-.9 3.6-1.3 7.5-1.1 11.6m70.4-42.1-1 18.2c0 .3-.1 1.1-.7 1.3-11.8 5-24.3 12.8-35.2 22.1-.4.3-.5.4-.9.4h-.2c-3.2-.5-11.4-1.5-19.3-1.5-4.2 0-7.7.3-10.4.9-.1-2.2 0-9.3 2.7-15.5 15-15.3 35-24.9 56-27.3 2.1.1 4.3.4 6.3.8.8.2 1.6.3 2.4.6.2-.1.3 0 .3 0m69.8 42.1c0 .5-.2.7-.3.8-4.5-.8-9.5-1.2-14.8-1.2-5.6 0-10.3.4-13.1.7-.9.1-1.6.1-2 .2h-.3c-.4 0-.8 0-1.1-.1-1.1-.2-1.7-.7-1.8-.8-6.3-5.8-13.1-11-20.3-15.3-5.8-3.5-10.4-5.6-12.4-6.5-.5-.2-.8-.4-1-.4-.9-.5-1-1.3-1-1.3 0-.8.8-15.4 1.1-17.2.2-1.2 1-1.4 1.1-1.4 1.6-.3 4.4-.8 7.9-.9 2.9.3 5.5.7 8.1 1.2 18.5 3.7 35.2 12.7 48.4 26.2.8 2.1 1.4 4.6 1.7 7.3.2 4-.1 7.6-.2 8.7m21.5 37.8h-.2c-.1 0-.1.2-.2-.2-1.3-4.7-6.5-21.2-18-34.5-.4-.4-1-2-.8-3.1.6-4.3.5-8.5-.4-12.4 12.1 13.9 19.8 30.8 22.3 49-.8.5-1.7.9-2.7 1.2M76.3 138.6c5.6 0 11.3.5 16.7 1.4l.2.1c.1 0 .2 0 .3.1.8 3.5 5.1 21.8 11.9 38.8.1.6 0 .7-.6 1.6-3.7 5.3-13.1 19.3-20.7 34.6-.2.3-.6.7-2.3.7h-1.2c-5.4-.4-13.3-1.2-19.7-2.5-2.7-.5-5-1.1-6.6-1.7-.2-.1-.6-.5-.8-.8-8.4-18.4-9.4-31.2-9.5-34.7 0-.6.1-2.3.3-3 1.2-4.2 6.1-18.8 18-32.9.1-.1.9-.7 2.4-.9 1.2-.2 5.4-.8 11.6-.8m133.2 74.1c-.5.8-1.5 1.4-1.8 1.4-13 2.9-25.3 3.3-30.2 3.4-.6-.1-1.2-.8-1.4-1-8-15.9-17.7-31.2-20.5-35.5-.3-.4-.2-1.4.2-2.4.1-.2 8-18.9 13.2-36.8.1-.4 1.3-1 2.1-1.1 5.8-.7 11.2-1 16.1-1 6.8 0 11.1.6 13 1l.1-.6.1.7c.7.1 1.7.9 2 1.3 11.1 12.8 16.2 28.6 17.5 33.2.3.9.2 3.2.1 4.1-1.9 17.3-8 29-10.5 33.3M107 181.9c.4-.5 1-.9 1.7-.9h3.1c6.2 0 27.3 0 40.3.6h.5c.4.1.7.3 1 .6 7.7 11.5 17.9 30.5 20.5 35.7.3.6.2 1.7.1 1.9-6.9 15.7-18.6 29.3-22 33-.4.4-1 .7-1.2.7-6.2 1-12.5 1.5-19 1.5-10.2 0-18.2-1.3-22.1-2l-.3-.1c-.9-.2-2-.9-2.2-1.2-12.6-13.7-20.5-32-21.5-34.4 6.1-13.6 18.6-31.9 21.1-35.4m26.5-64.5c15.8 7.1 28.9 18.5 32.6 21.8.4.4.5 1.7.4 2.1-4.4 15.3-11.3 31.9-13.2 36.6-.2.6-1.2 1-1.6 1-13-.5-33.9-.6-40-.6H108.9c-.8-.2-1.5-1-1.6-1.2-5.7-14.5-9.6-30-11-35.9-.3-1.2.6-2.8 1-3.1 14.9-12.4 28.1-18.6 33.1-20.7.6-.3 1.7-.3 2.6-.1.2 0 .4.1.5.1m80.9 14.9c-14.6-21.7-36.7-36.5-62.3-41.6-6.3-1.3-12.8-1.9-19.2-1.9-46.5 0-86.8 33.2-95.9 78.8-10.5 53 24 104.6 76.9 115.1 6.3 1.3 12.8 1.9 19.2 1.9 46.5 0 86.9-33.2 95.9-78.8 5.1-25.6-.1-51.7-14.6-73.5"/></g></g><g id="g318"><g id="g320"><g id="g326"><g id="g328"><linearGradient id="path342_1_" gradientUnits="userSpaceOnUse" x1="167.966" y1="803.076" x2="170.231" y2="803.076" gradientTransform="matrix(319.6797 0 0 -319.6797 -53629.23 257279.781)"><stop offset="0" style="stop-color:#254aa5"/><stop offset=".25" style="stop-color:#254aa5"/><stop offset=".5" style="stop-color:#217cc9"/><stop offset=".728" style="stop-color:#254aa5"/><stop offset="1" style="stop-color:#254aa5"/></linearGradient><path id="path342" d="M681.1 322.6c30.8 47.3 48.8 103.8 48.8 164.5 0 166.7-135.1 301.8-301.8 301.8-166.7 0-301.8-135.1-301.8-301.8 0-61.3 18.4-118.4 49.8-166-9.6-21.7-19.4-42.4-29.2-62.1C96.4 321.3 66 400.6 66 487.1c0 200 162.1 362.1 362.1 362.1 200 0 362.1-162.1 362.1-362.1 0-87.8-31.2-168.2-83.2-230.9-9.4 23.5-18 45.6-25.9 66.4" style="fill:url(#path342_1_)"/></g></g></g></g><g id="g344"><g id="g346"><g id="g352"><g id="g354"><linearGradient id="path364_1_" gradientUnits="userSpaceOnUse" x1="163.76" y1="804.598" x2="166.026" y2="804.598" gradientTransform="matrix(50.5644 0 0 -50.5644 -8139.816 41209.793)"><stop offset="0" style="stop-color:#aa9402"/><stop offset=".5" style="stop-color:#dcbf03"/><stop offset="1" style="stop-color:#dcbf03"/></linearGradient><path id="path364" d="M140.6 487.1c0 92.7 43.9 175.1 112 227.6 1-7.2 1.9-14.6 2.6-22-58.6-49.3-95.8-123.1-95.8-205.6 0-46.5 11.8-90.2 32.6-128.4-1.1-2.6-2.1-5.2-3.2-7.8-1.9-4.7-3.9-9.4-5.9-14.1-26.8 43.8-42.3 95.2-42.3 150.3" style="fill:url(#path364_1_)"/></g></g></g></g><g id="g366"><g id="g368"><g id="g374"><g id="g376"><linearGradient id="path386_1_" gradientUnits="userSpaceOnUse" x1="168.854" y1="804.602" x2="171.12" y2="804.602" gradientTransform="matrix(50.2969 0 0 -50.2969 -7891.121 40995.254)"><stop offset="0" style="stop-color:#dcbf03"/><stop offset=".5" style="stop-color:#dcbf03"/><stop offset="1" style="stop-color:#aa9402"/></linearGradient><path id="path386" d="M666.3 362.2c0 .1-.1.2-.1.3 19.5 37.2 30.7 79.6 30.7 124.6 0 82.2-37 155.8-95.2 205.1 1.1 6.9 2.5 14 4 21 66.9-52.6 110-134.3 110-226.1 0-54.1-15-104.6-40.9-147.8-2.9 7.8-5.8 15.4-8.5 22.9" style="fill:url(#path386_1_)"/></g></g></g></g><g id="g390"><g id="g396" transform="translate(241.777 204.559)"><path id="path398" class="st0" d="M103.3 597.2c.7-4.4-3-5.9-6.3-6.9-3.4-1-6.1 0-6.7 2.2-.5 1.7.6 3.1 2.7 4l9.9 4.7c5.3 2.5 8.9 6 7.2 11.9-1.7 6-7 9.8-19 6.4-7.5-2.1-16.9-5.9-14.1-16l9.3 2.7c-1.2 4.5 2.8 6.4 6.4 7.5 3.9 1.1 6.9.6 7.7-2.2.7-2.5-1-3.7-4.1-5.2l-7.2-3.4c-5.1-2.4-9.7-5.5-7.9-12.1 2.1-7.2 8.5-8.6 18.1-5.9 6.3 1.8 15.3 5.6 13.3 14.9l-9.3-2.6z"/></g><g id="g400" transform="translate(252.162 208.66)"><path id="path402" class="st0" d="m124.2 580.7 9.4 1.6-7.4 5.6-7-1.2 5-6zm-14.7 6.6 29.3 4.9-1.1 6.3-20.8-3.5-1.2 6.9 19.7 3.3-1 6.1-19.7-3.3-1.3 7.6 21 3.5-1.1 6.3-29.5-4.9 5.7-33.2z"/></g><g id="g404" transform="translate(261.074 199.607)"><path id="path406" class="st0" d="m142.3 617.1 11.4.6c1.9.1 4.2-.9 4.4-4.1.2-3.3-2.3-4.3-4.4-4.4l-11-.6-.4 8.5zm-7.9-15.3 23.1 1.2c8.8.5 10 6.2 9.8 9.7-.2 4.1-1.9 6.7-5.6 7.8v.1c3.8.8 4.1 5.9 3.9 9.2-.1 1.6-.2 5.6 1.3 7.4l-9.4-.5c-.7-1.6-.7-3-.5-6.5.2-4.7-1.6-6-4.3-6.1l-10.7-.6-.6 12.3-8.6-.5 1.6-33.5z"/></g><g id="g408" transform="translate(271.022 204.269)"><path id="path410" class="st0" d="m162.4 598.4 8.6-.3 1 33.7-8.6.3-1-33.7z"/></g><g id="g412" transform="translate(275.904 204.356)"><path id="path414" class="st0" d="m172.2 598.1 29.6-3.2.7 6.4-21 2.3.7 6.9 19.9-2.1.7 6.1-19.9 2.1.8 7.7 21.1-2.3.7 6.4-29.7 3.2-3.6-33.5z"/></g><g id="g416" transform="translate(298.256 205.827)"><path id="path418" class="st0" d="m217.4 592.1-1.2 14.2 9.6-2.7-8.4-11.5zm12.3 16.8-14.1 4-.6 7.4-9 2.5 4.4-36.2 10-2.8 22.6 28.6-9 2.5-4.3-6z"/></g></g></svg>