<svg xmlns="http://www.w3.org/2000/svg" viewBox="0 0 1679.7 2000" style="enable-background:new 0 0 1679.7 2000" xml:space="preserve"><path d="M839.9 2000c-260-101.5-468.5-242-614.1-436.7C74.6 1360.7 0 1100.1 0 737.1V0h1679.7v737.1c0 363.1-74.6 623.7-225.8 826.3-145.6 194.6-354.1 335.1-614 436.6z" style="fill-rule:evenodd;clip-rule:evenodd"/><path d="M839.9 1942.3c-116.7-46.8-223.1-101.5-317.6-167.4h635.3c-94.6 66-201 120.7-317.7 167.4zm-565-404.8c-50.1-67.3-92.2-142.6-126-226.8h1382c-33.8 84.2-75.9 159.5-126 226.8h-1130zM76.3 1046.4c-11.6-69-18.9-142.6-21.9-221.2H1625c-2.6 78.6-10 152.2-21.6 221.2H76.3zM867.7 309h759v260.3h-759V309zM53 53.4h761.3v718.5H53V53.4z" style="fill-rule:evenodd;clip-rule:evenodd;fill:#cd3529"/><path d="M560.3 739.7c-18.6-6-41.1-56.4-40.1-80.6v-3.3c-24.2-41.1-48.7-73.9-65.6-94.5l.3 106.4c-1.3 35.8-10.3 58.7-36.1 71 21.2 3 53.7 7.3 72.9-21.2 5.3 12.3 41.8 31.5 68.6 22.2zm65.4-237c6.6 14.9 10.9 40.8-29.8 73.6 49.7-6.3 72.3-24.9 74.6-49.1 4-44.8-10.9-45.1-.7-105.8 3.3-20.6 16.2-34.8 38.5-52.7-46.4 7-74.9 29.8-89.5 81.2l-98.5-.3V274.5H551c-3-19.2-8.6-38.1-20.2-59.3h-47.4c-23.9 0-34.2-9.3-57.4-1 16.9 10 28.9 22.9 28.9 37.5v201.6c22.2 11.3 45.1 29.5 63 49.4h107.8zm42.1-228.2h50.4c0 28.2 32.5 83.9 80.6 85.5-24.2-34.8-33.8-59.4-23.2-107.1 24.2-62.3 5.3-112.1-22.9-119 5.3 17.2 8.9 68.3-20.2 81.6H639c8.9 29.9 22.1 54.1 28.8 59zM440 633.3c-199.3 71.3-287.8-25.5-342.5-169.8-7.6-18.2-8.3-30.8-29.8-44.4 24.2-8 28.5-22.9 32.2-38.1 13.6-97.5 73.9-179.7 168.8-209.9v48.1c-67 33.5-103.1 122.7-100.8 205.9 3 94.2 90.8 192 180 189.7 29.2-.7 62.3-4 92.2-26.2l-.1 44.7zm-75.9-477.8c14.6-.7 30.2-1.3 46.7-1.7-3.6 21.2-11.3 103.5 21.9 131.3-6.3 13.6-23.5 28.5-40.1 28.2-11.3-.3-14.6-5.3-20.6-13.6-2.6-4-5.3-8-8-12.3l.1-131.9zm-15.3 341.2v102.4c-6.6 1-14.6 1-24.5-1-10.6-2-25.9-6-40.8-15.6v-428c0-26.5-19.9-50.1-53.4-63.7 32.5-20.9 94.8-1.3 105.1 22.2 32.5-21.2 71.3-31.2 109.7-30.8 73.3.7 145.2 39.8 172.7 114.4 14.2 39.5 21.6 79.6 50.7 94.5-7.6 4-14.3 9.7-19.6 16.6-14.9 19.6-24.5 49.1-49.1 85.2-9.6 14.6-21.5 28.5-35.8 42.1h-29.2v-34.8c20.6-32.8 31.8-74.3 31.2-114.4-.7-58.7-46.1-148.2-150.2-154.2-29.8-1.7-55.4 7.3-67 14.6V443c61 0 105.1 21.6 137.9 50.4 31.5 27.5 53.4 63 72.9 99.8 27.8 52.4 47.1 98.5 80.9 97.5 25.5-1.3 37.5-13.6 48.7-29.5 11.3 52.4-29.2 74.3-54 74.9-26.5.3-58.4-22.2-78.6-51.4-30.8-43.8-60.3-105.8-103.1-146.6-47.1-45.7-80.6-41.4-104.5-41.4zm6 174.1c7 28.2 20.9 62 44.8 77.3-62.7-.7-67.3-22.5-76.3-32.2-14.9 14.9-37.8 39.8-85.5 34.8 26.9-24.9 38.5-49.7 43.1-80.9 23.1 3.6 52 4.6 73.9 1z" style="fill-rule:evenodd;clip-rule:evenodd;fill:#fff"/></svg>