<?xml version="1.0" standalone="no"?>
<!DOCTYPE svg PUBLIC "-//W3C//DTD SVG 20010904//EN"
 "http://www.w3.org/TR/2001/REC-SVG-20010904/DTD/svg10.dtd">
<svg version="1.0" xmlns="http://www.w3.org/2000/svg"
 width="256.000000pt" height="256.000000pt" viewBox="0 0 256.000000 256.000000"
 preserveAspectRatio="xMidYMid meet">

<g transform="translate(0.000000,256.000000) scale(0.100000,-0.100000)"
fill="#000000" stroke="none">
<path d="M822 2043 l-423 -3 3 -403 3 -402 27 -80 c58 -170 170 -354 333 -542
138 -161 301 -310 445 -408 l70 -48 67 45 c362 241 639 591 771 977 l37 106 3
378 3 377 -399 0 c-219 0 -426 1 -458 3 -32 2 -249 2 -482 0z m394 -48 c-3 -9
0 -15 8 -15 7 0 19 7 26 15 11 13 73 15 446 15 l435 0 -3 -147 -3 -148 -847
-3 -848 -2 0 150 0 150 396 0 c348 0 395 -2 390 -15z m-416 -846 c0 -482 -1
-530 -16 -518 -8 7 -49 57 -90 111 l-74 99 0 419 0 420 90 0 90 0 0 -531z
m378 -176 c1 -387 -1 -703 -5 -703 -5 0 -45 32 -90 70 l-83 71 0 628 c0 345 3
631 7 635 4 4 43 5 88 4 l80 -3 3 -702z m382 67 l0 -640 -82 -65 c-45 -36 -86
-65 -90 -65 -5 0 -8 317 -8 705 l0 705 90 0 90 0 0 -640z m380 229 c0 -403 0
-412 -22 -448 -32 -54 -142 -201 -150 -201 -10 0 -11 1044 -1 1053 3 4 44 7
90 7 l83 0 0 -411z"/>
<path d="M713 1943 c-4 -10 -21 -55 -39 -100 l-32 -83 23 0 c16 0 25 7 29 25
5 21 12 25 46 25 34 0 42 -4 50 -25 6 -15 17 -25 29 -25 20 0 19 2 -5 66 -47
124 -52 134 -74 134 -11 0 -24 -8 -27 -17z m46 -73 c10 -29 9 -30 -19 -30 -28
0 -29 1 -19 30 6 17 15 30 19 30 4 0 13 -13 19 -30z"/>
<path d="M830 1953 c0 -5 14 -50 32 -100 27 -80 34 -93 53 -93 19 0 27 14 57
100 34 99 34 100 13 100 -18 0 -25 -11 -40 -62 -10 -35 -22 -67 -26 -72 -4 -4
-17 24 -30 63 -17 53 -27 71 -41 71 -10 0 -18 -3 -18 -7z"/>
<path d="M1053 1928 c-6 -18 -22 -63 -37 -100 -25 -66 -25 -68 -6 -68 13 0 24
10 30 26 9 22 15 25 47 22 28 -2 41 -9 48 -25 6 -14 19 -23 32 -23 21 0 20 3
-19 100 -34 84 -44 100 -63 100 -16 0 -25 -9 -32 -32z m52 -60 c7 -25 5 -28
-20 -28 -22 0 -26 3 -20 18 4 9 10 25 12 35 7 23 19 11 28 -25z"/>
<path d="M1210 1860 c0 -93 1 -100 20 -100 19 0 20 7 20 100 0 93 -1 100 -20
100 -19 0 -20 -7 -20 -100z"/>
<path d="M1450 1860 c0 -82 3 -100 15 -100 11 0 15 12 15 45 l0 45 45 0 c33 0
45 4 45 15 0 11 -12 15 -45 15 -41 0 -45 2 -45 25 0 23 3 25 50 25 38 0 50 4
50 15 0 12 -14 15 -65 15 l-65 0 0 -100z"/>
<path d="M1681 1934 c-15 -19 -21 -41 -21 -74 0 -68 27 -100 85 -100 35 0 48
5 65 27 19 25 20 27 4 36 -14 8 -21 5 -32 -11 -17 -26 -54 -29 -73 -6 -7 9
-14 33 -14 54 0 21 7 45 14 54 17 20 55 21 71 1 16 -19 40 -19 40 -1 0 27 -30
46 -75 46 -35 0 -48 -5 -64 -26z"/>
<path d="M1590 1780 c0 -11 7 -20 15 -20 8 0 15 9 15 20 0 11 -7 20 -15 20 -8
0 -15 -9 -15 -20z"/>
<path d="M1870 1780 c0 -11 7 -20 15 -20 8 0 15 9 15 20 0 11 -7 20 -15 20 -8
0 -15 -9 -15 -20z"/>
</g>
</svg>
