<?xml version="1.0" standalone="no"?>
<!DOCTYPE svg PUBLIC "-//W3C//DTD SVG 20010904//EN"
 "http://www.w3.org/TR/2001/REC-SVG-20010904/DTD/svg10.dtd">
<svg version="1.0" xmlns="http://www.w3.org/2000/svg"
 width="256.000000pt" height="256.000000pt" viewBox="0 0 256.000000 256.000000"
 preserveAspectRatio="xMidYMid meet">

<g transform="translate(0.000000,256.000000) scale(0.100000,-0.100000)"
fill="#000000" stroke="none">
<path d="M1095 1914 c-525 -116 -829 -658 -653 -1163 93 -267 299 -465 578
-557 80 -27 95 -28 260 -28 165 0 180 1 260 28 401 132 652 495 627 905 -23
374 -283 696 -647 801 -101 30 -323 37 -425 14z m402 -45 c287 -75 522 -306
605 -596 19 -65 23 -103 23 -228 0 -173 -12 -231 -76 -365 -107 -225 -292
-383 -536 -456 -78 -24 -105 -27 -233 -27 -128 0 -155 3 -233 27 -244 73 -429
231 -536 456 -64 134 -76 192 -76 365 0 125 4 163 23 228 94 326 373 570 706
617 87 12 243 2 333 -21z"/>
<path d="M1105 1844 c-521 -115 -793 -689 -554 -1169 103 -208 303 -367 533
-425 109 -27 283 -27 392 0 230 58 430 217 533 425 66 132 86 218 85 370 -2
199 -50 344 -166 499 -96 128 -274 248 -433 291 -87 24 -301 29 -390 9z m203
-32 c6 -9 12 -32 12 -52 0 -64 -48 -96 -91 -61 -18 14 -24 29 -24 61 0 69 64
102 103 52z m133 8 c27 0 24 -18 -3 -22 -20 -3 -24 -12 -32 -60 -4 -32 -13
-58 -18 -58 -10 0 -4 69 8 113 4 12 0 17 -15 17 -12 0 -21 5 -21 11 0 8 11 9
31 5 17 -3 40 -6 50 -6z m-296 -25 c18 -17 25 -35 25 -63 0 -47 -14 -62 -57
-62 -26 0 -36 6 -48 30 -31 59 -9 114 48 119 4 1 19 -10 32 -24z m-135 -16 c0
-5 -13 -15 -30 -20 -34 -12 -34 -13 -20 -40 9 -15 15 -17 30 -9 10 5 25 10 32
10 7 -1 0 -8 -15 -16 -16 -9 -27 -21 -24 -27 14 -39 17 -57 9 -57 -9 0 -68
129 -61 133 5 3 73 35 77 36 1 1 2 -4 2 -10z m618 -29 c36 -22 41 -44 14 -61
-12 -7 -17 -20 -15 -33 7 -35 -19 -50 -61 -36 -20 6 -39 16 -42 22 -8 13 46
128 60 128 6 0 26 -9 44 -20z m126 -78 c7 -12 -36 -142 -47 -142 -5 0 -7 11
-4 25 6 33 -27 59 -55 44 -42 -22 -25 -1 30 39 61 44 68 47 76 34z m-870 -76
c17 -11 24 -22 17 -24 -6 -2 -17 1 -24 6 -9 8 -19 5 -36 -7 -20 -15 -22 -21
-12 -39 7 -12 8 -22 2 -22 -12 0 -63 129 -55 141 5 9 43 -10 108 -55z m509 39
c117 -20 216 -74 308 -165 123 -123 179 -256 179 -427 0 -170 -52 -294 -175
-419 -61 -61 -98 -90 -155 -118 -177 -86 -363 -86 -540 0 -57 28 -95 57 -155
118 -86 87 -132 164 -160 271 -20 77 -19 220 1 299 56 217 252 402 467 441 94
17 136 17 230 0z m447 -34 c0 -5 -21 -27 -47 -49 l-48 -40 24 -26 c14 -14 21
-29 18 -33 -4 -3 -8 -4 -9 -2 -2 2 -14 16 -27 32 l-25 27 49 50 c48 49 65 59
65 41z m-1102 -58 c2 -14 8 -20 18 -16 19 7 44 -14 44 -38 0 -10 -11 -30 -24
-46 l-24 -27 -48 39 c-27 21 -53 42 -57 45 -4 4 4 22 19 39 31 37 67 39 72 4z
m1182 -40 c0 -5 -20 -21 -45 -36 -57 -36 -59 -41 -39 -72 9 -14 14 -28 11 -31
-7 -7 -49 54 -45 66 4 11 99 80 110 80 5 0 8 -3 8 -7z m-1190 -124 c0 -13 -4
-12 -69 27 -34 20 -58 40 -56 45 6 9 125 -59 125 -72z m-144 8 c-5 -21 1 -26
49 -46 30 -13 55 -27 55 -32 0 -13 -3 -12 -65 15 -55 25 -55 25 -66 5 -20 -39
-21 -11 0 35 21 49 37 62 27 23z m1440 -92 c14 -21 15 -31 6 -50 -7 -14 -16
-25 -22 -25 -13 0 -13 6 2 29 6 10 8 26 5 35 -9 24 -72 21 -98 -5 -24 -24 -21
-40 9 -54 23 -10 30 -25 11 -25 -27 0 -49 22 -49 50 0 63 102 96 136 45z
m-1410 -41 c31 -9 52 -20 47 -25 -11 -11 -145 30 -137 43 3 5 12 7 20 4 8 -3
40 -13 70 -22z m-46 -59 c9 -11 22 -14 46 -9 20 4 34 2 34 -4 0 -5 -16 -13
-35 -16 -46 -9 -50 -44 -5 -52 41 -9 39 -28 -2 -20 -18 3 -52 8 -75 12 -41 6
-42 7 -36 38 12 64 44 86 73 51z m1490 -24 c0 -10 -49 -21 -97 -21 -35 0 -35
0 -29 -35 4 -19 3 -35 -2 -35 -9 0 -25 70 -17 78 4 4 92 18 128 21 9 0 17 -3
17 -8z m-1442 -127 c14 -10 22 -26 22 -44 0 -55 -88 -82 -130 -40 -59 59 37
134 108 84z m1452 -4 c0 -6 -24 -10 -61 -8 -65 2 -86 -11 -68 -44 7 -13 22
-18 52 -18 23 0 49 -5 57 -10 21 -14 -85 -13 -111 0 -19 11 -28 68 -12 83 11
11 143 8 143 -3z m-1429 -130 c28 -15 26 -74 -3 -94 -66 -46 -155 9 -108 66
11 13 19 18 20 12 0 -5 -5 -15 -11 -21 -6 -6 -8 -20 -4 -32 5 -16 15 -21 40
-21 64 0 101 63 45 77 -21 6 -28 23 -9 23 6 0 19 -5 30 -10z m1352 -7 c58 -16
59 -17 53 -46 -3 -17 -11 -36 -17 -44 -15 -18 -48 -17 -55 2 -5 12 -10 13 -20
4 -16 -13 -50 -3 -58 18 -8 21 12 83 27 83 6 0 37 -7 70 -17z m-1248 -308 c0
-30 -39 -27 -43 3 -3 20 0 23 20 20 15 -2 23 -10 23 -23z m1103 2 c2 -9 -4
-20 -12 -23 -21 -8 -46 13 -39 32 8 20 47 13 51 -9z m-218 -98 c-7 -11 -14
-19 -16 -16 -7 7 7 37 17 37 6 0 5 -9 -1 -21z m-650 -24 c47 -24 36 -85 -15
-85 -12 0 -27 6 -33 12 -13 13 -16 11 -42 -32 -4 -8 -11 -12 -15 -8 -8 7 56
128 68 128 4 0 21 -7 37 -15z m687 -121 c-4 -4 -16 1 -26 10 -27 24 -61 6 -61
-32 -1 -20 -3 -23 -9 -12 -12 21 -24 127 -15 141 4 7 27 -9 62 -45 31 -30 53
-58 49 -62z m-587 6 c0 -47 -4 -80 -10 -80 -5 0 -10 11 -10 25 0 33 -44 46
-66 19 -14 -16 -15 -17 -10 -2 7 23 78 118 88 118 4 0 8 -36 8 -80z m429 10
c7 -25 15 -53 17 -62 9 -32 -20 -19 -66 27 -24 24 -45 43 -47 42 -1 -2 4 -26
11 -55 8 -29 11 -52 6 -52 -7 0 -40 104 -40 128 0 23 24 12 68 -30 49 -47 47
-51 26 40 -11 45 11 12 25 -38z m-288 30 c23 -13 25 -56 3 -68 -14 -8 -15 -15
-6 -41 15 -43 -4 -40 -22 4 -18 43 -41 45 -49 5 -11 -52 -24 -33 -16 23 4 28
8 60 8 70 1 20 49 24 82 7z m109 -4 c0 -2 11 -33 25 -70 15 -39 20 -66 14 -66
-6 0 -13 9 -16 20 -4 14 -14 20 -33 20 -22 0 -29 -6 -35 -27 -4 -16 -10 -22
-12 -15 -8 22 29 142 43 142 8 0 14 -2 14 -4z"/>
<path d="M1229 1793 c-21 -57 18 -114 56 -83 18 15 20 81 3 98 -21 21 -48 14
-59 -15z"/>
<path d="M1082 1788 c-33 -33 4 -117 46 -104 18 6 22 15 22 46 0 56 -38 88
-68 58z"/>
<path d="M1576 1734 c-3 -9 -4 -19 -1 -24 10 -16 45 -18 57 -3 10 12 9 18 -7
29 -25 18 -41 18 -49 -2z"/>
<path d="M1551 1679 c-10 -27 11 -52 39 -47 23 5 18 38 -7 55 -21 14 -23 14
-32 -8z"/>
<path d="M1707 1638 c-22 -16 -25 -23 -15 -29 21 -14 25 -11 37 21 5 17 9 30
8 30 -1 0 -15 -10 -30 -22z"/>
<path d="M803 1601 c9 -25 14 -28 31 -19 19 10 19 11 -5 29 -33 26 -39 24 -26
-10z"/>
<path d="M1182 1609 c-272 -48 -472 -287 -472 -564 0 -159 53 -288 164 -400
82 -82 160 -127 272 -155 98 -25 170 -25 268 0 111 28 190 73 271 155 121 121
171 254 163 430 -12 241 -155 430 -386 511 -78 27 -202 37 -280 23z m-80 -106
c-32 -32 -79 -89 -104 -127 l-46 -68 -43 39 -42 40 21 31 c46 64 177 141 240
142 l33 0 -59 -57z m408 36 c56 -25 143 -92 166 -126 17 -26 16 -27 -25 -66
l-43 -39 -36 53 c-55 84 -103 140 -146 171 l-39 28 39 0 c21 0 59 -10 84 -21z
m-300 -3 c0 -2 -13 -30 -30 -61 -16 -31 -41 -95 -56 -141 -15 -50 -31 -84 -38
-84 -25 0 -87 30 -92 45 -15 37 151 245 195 245 12 0 21 -2 21 -4z m60 -157
l0 -149 -57 0 c-86 0 -90 5 -68 87 33 123 92 233 116 217 5 -3 9 -72 9 -155z
m91 89 c11 -21 31 -78 45 -129 31 -107 30 -109 -58 -109 l-58 0 0 148 c0 82 3
152 7 155 10 10 43 -23 64 -65z m49 50 c48 -35 160 -189 160 -218 0 -11 -73
-50 -94 -50 -9 0 -24 29 -41 83 -15 45 -40 108 -56 140 -16 32 -29 60 -29 62
0 12 34 3 60 -17z m-385 -304 c34 -16 65 -65 65 -103 0 -17 -6 -21 -30 -21
-22 0 -30 5 -30 18 0 28 -29 62 -54 62 -45 0 -61 -34 -61 -125 0 -90 16 -125
58 -125 26 0 57 28 57 52 0 13 8 18 30 18 24 0 30 -4 30 -21 0 -52 -64 -109
-122 -109 -34 0 -85 35 -105 72 -26 48 -25 170 3 222 20 39 72 76 107 76 11 0
34 -7 52 -16z m621 1 c25 -10 40 -26 54 -57 27 -60 26 -68 -15 -68 -30 0 -35
3 -35 23 0 31 -32 59 -62 55 -33 -4 -52 -51 -52 -129 0 -46 5 -74 17 -93 28
-41 89 -30 101 19 5 20 13 25 37 25 29 0 31 -2 24 -27 -25 -104 -136 -135
-204 -58 -35 41 -45 82 -39 170 5 74 25 110 79 137 41 22 50 22 95 3z m-286
-64 c0 -17 -8 -20 -47 -23 -44 -3 -48 -5 -51 -30 -3 -27 -1 -28 37 -28 34 0
41 -3 41 -19 0 -16 -8 -20 -37 -23 -38 -3 -38 -3 -41 -50 -3 -40 -6 -48 -23
-48 -18 0 -19 8 -19 120 l0 120 70 0 c63 0 70 -2 70 -19z m-95 -435 c0 -107
-3 -150 -12 -153 -26 -9 -97 141 -117 249 -6 36 -5 38 26 47 18 5 49 9 68 8
l35 -2 0 -149z m159 134 c11 -11 -10 -98 -46 -186 -29 -71 -61 -114 -76 -100
-9 10 -16 271 -8 293 5 13 16 15 64 9 31 -4 61 -11 66 -16z m-298 -92 c15 -46
40 -109 55 -140 34 -67 34 -68 13 -68 -24 0 -125 102 -161 162 -49 81 -49 84
-11 108 61 37 73 30 104 -62z m409 65 c19 -9 35 -23 35 -31 0 -20 -54 -106
-102 -163 -38 -45 -102 -89 -113 -78 -3 4 8 32 25 64 16 31 42 95 56 141 29
93 36 97 99 67z m-537 -107 c23 -35 70 -92 104 -125 60 -60 60 -61 32 -61 -46
0 -150 55 -209 111 -30 29 -55 56 -55 62 0 11 67 77 79 77 4 0 26 -29 49 -64z
m658 30 c19 -19 34 -39 34 -46 0 -20 -98 -106 -154 -134 -30 -15 -74 -30 -98
-33 l-43 -6 65 64 c36 35 83 92 105 126 22 35 44 63 49 63 4 0 23 -15 42 -34z"/>
<path d="M677 1532 c-13 -14 -14 -21 -5 -30 18 -18 36 -15 48 8 20 38 -13 55
-43 22z"/>
<path d="M726 1492 c-15 -18 -15 -20 5 -38 20 -18 21 -18 35 1 33 45 -2 78
-40 37z"/>
<path d="M519 1163 c-7 -20 -6 -28 3 -35 31 -19 55 5 43 43 -9 28 -34 23 -46
-8z"/>
<path d="M522 1028 c-28 -28 -6 -68 38 -68 27 0 70 25 70 40 0 33 -82 54 -108
28z"/>
<path d="M1914 876 c-12 -49 28 -65 48 -20 10 21 9 27 -3 35 -24 15 -38 10
-45 -15z"/>
<path d="M1987 873 c-4 -3 -7 -17 -7 -30 0 -29 36 -32 45 -3 10 31 -17 55 -38
33z"/>
<path d="M932 446 c-10 -23 -9 -26 14 -32 33 -8 53 10 38 34 -17 26 -39 25
-52 -2z"/>
<path d="M1570 407 c0 -17 5 -27 14 -27 24 0 27 16 6 35 -19 18 -20 17 -20 -8z"/>
<path d="M1042 388 c-17 -17 -15 -38 3 -38 9 0 15 9 15 25 0 29 -1 30 -18 13z"/>
<path d="M1157 370 c-6 -23 10 -34 40 -28 29 5 23 42 -8 46 -20 2 -28 -2 -32
-18z"/>
<path d="M1306 352 c-9 -37 -5 -45 17 -40 12 2 12 9 2 38 l-12 35 -7 -33z"/>
</g>
</svg>
