<?xml version="1.0" standalone="no"?>
<!DOCTYPE svg PUBLIC "-//W3C//DTD SVG 20010904//EN"
 "http://www.w3.org/TR/2001/REC-SVG-20010904/DTD/svg10.dtd">
<svg version="1.0" xmlns="http://www.w3.org/2000/svg"
 width="256.000000pt" height="256.000000pt" viewBox="0 0 256.000000 256.000000"
 preserveAspectRatio="xMidYMid meet">

<g transform="translate(0.000000,256.000000) scale(0.100000,-0.100000)"
fill="#000000" stroke="none">
<path d="M1175 2399 c-536 -47 -973 -487 -1013 -1019 -28 -378 111 -719 389
-957 416 -354 1042 -354 1458 0 178 152 299 348 363 585 26 99 36 339 18 450
-93 583 -622 993 -1215 941z m255 -220 c172 -27 338 -111 472 -238 190 -180
288 -405 288 -661 0 -256 -98 -481 -288 -661 -188 -178 -407 -259 -672 -246
-386 19 -710 274 -826 652 -26 83 -28 103 -28 255 0 152 2 172 28 255 103 337
385 588 723 645 71 11 228 11 303 -1z"/>
<path d="M1145 2016 c-311 -61 -541 -292 -601 -604 -66 -344 130 -696 460
-826 206 -82 425 -69 631 36 111 58 244 190 302 303 63 122 107 309 89 380
l-6 25 -370 0 -370 0 0 -105 0 -105 255 0 c140 0 255 -2 255 -5 0 -3 -16 -38
-36 -78 -67 -132 -210 -246 -351 -278 -128 -29 -294 -3 -398 62 -164 102 -257
268 -257 459 0 191 93 357 257 459 105 66 269 91 400 61 114 -26 240 -111 306
-206 l30 -44 114 0 c77 0 115 4 115 11 0 6 -17 43 -37 83 -26 50 -64 98 -128
162 -76 77 -105 98 -185 137 -52 26 -122 54 -155 62 -86 22 -236 27 -320 11z"/>
</g>
</svg>
