<svg version="1.1" id="Layer_1" xmlns="http://www.w3.org/2000/svg" x="0" y="0" viewBox="0 0 1000 807.2" style="enable-background:new 0 0 1000 807.2" xml:space="preserve"><style>.st0{fill-rule:evenodd;clip-rule:evenodd;fill:#fff}.st7{fill:#d61e3f}.st7,.st8{fill-rule:evenodd;clip-rule:evenodd}.st8,.st9{fill:#151c4a}</style><g id="g50" transform="matrix(4.6291 0 0 4.6291 -203.173 492.07)"><path id="path2" class="st0" d="M75.1-106.3V10.6c0 9.2 1.2 12.8 4 17.7l.2.3.2.3c16.5 24.6 43.8 39.3 73.2 39.3 29.3 0 56.7-14.7 73.2-39.3l.2-.3.2-.3c2.8-4.9 4-8.5 4-17.7v-116.9H75.1z"/><path id="path4" d="M220.8-9.5v20c0 8-.9 9.8-2.8 13.1-14.2 21.2-38.2 35.1-65.4 35.1-27.2 0-51.2-13.9-65.4-35.1-1.9-3.2-2.8-5.1-2.8-13.1V-97h136.4v87.5zm4.2-26.4v-65.2H80.2V10.6c0 8.5 1 11.1 3.3 15.2l.1.1.1.1c15.5 23.2 41.3 37 68.9 37 27.6 0 53.4-13.8 68.9-37l.1-.1.1-.1c2.3-4 3.3-6.7 3.3-15.2v-46.5z" style="fill-rule:evenodd;clip-rule:evenodd;fill:#001a4b"/><path id="path6" d="M226-2.2v12.8c0 8.7-1.1 11.5-3.5 15.7l-.1.2-.1.1C206.6 50 180.5 64 152.6 64c-28 0-54-14-69.7-37.4l-.1-.1-.1-.2c-2.4-4.2-3.5-7-3.5-15.7v-112.7H226v99.9zm2.3-33v-69.3H76.9V10.5c0 9.2 1.2 12.3 3.8 16.8l.1.2.1.2c16.1 24.1 42.9 38.4 71.6 38.4 28.7 0 55.5-14.4 71.6-38.4l.1-.2.1-.2c2.6-4.5 3.8-7.6 3.8-16.8V-.8l.2-34.4z" style="fill-rule:evenodd;clip-rule:evenodd;fill:#0f2045"/><g id="g10" transform="matrix(.5638 0 0 .5638 63.563 -87.557)"><path id="path8" d="M134.5 36.8c-4.2 0-7.6-3.7-7.6-8.2s3.4-8.2 7.6-8.2c4.2 0 7.6 3.7 7.6 8.2 0 4.5-3.4 8.2-7.6 8.2zM142-9.7v25.5c-2.8-2.7-6.4-4.3-10.4-4.3-8.6 0-15.6 7.5-15.6 16.8s7 16.8 15.5 16.8c4.1 0 7.7-1.7 10.5-4.5v4.1h10.3V-9.7H142zm43 45.2h-9.6V1.2h6.7c2.9 0 5.3 2.5 5.3 5.6s-2.4 5.6-5.3 5.6h-3.5v9.5h6.4c3.6 0 6.3 3 6.3 6.8-.2 3.9-2.4 6.5-6.3 6.8zm8.4-19.6c2.7-2.7 4.4-6.3 4.4-10.3 0-3.6-1.3-6.9-3.6-9.5-2.4-2.8-6.6-4-12.3-4h-17.1v52.6h22.1c8.5-.1 15.3-6.9 15.3-15.2 0-6-2.1-10.3-8.8-13.6zm51 28.9h10v-54h-10v54zm-16.8-13.4c0 3.2-2.6 5.7-5.9 5.7-3.2 0-5.9-2.6-5.9-5.7v-19h-10.2v21c0 7.1 7.2 12.9 16 12.9 8.9 0 16.1-5.8 16.1-12.9v-21h-10.1v19zM78.7 7.6C78.7-1 72-8 63.6-8H44.4v52.6h10.7V1.1l6.4-.1c3.9 0 6.9 3.1 6.9 6.9 0 3.8-3.2 6.9-7.1 6.9l-2.5.1v12.5l10.7 17.2H82l-14.7-22c6.5-1.6 11.4-7.7 11.4-15zm11.7 16.8c0-3.5 2.8-6.4 6.3-6.4s6.3 2.9 6.3 6.4H90.4zm6.2-13.8c9.4 0 16.8 6.2 16.6 17.6 0 .8 0 1.5-.1 2.2H90.4c0 .2.1.1.1.4 0 3.6 3.1 6.6 7 6.6 2.9 0 5.4-1.6 6.4-4l8.3 3.9c-2.9 5.2-8.5 8.5-15.6 8.5-9.4 0-17-7.9-17-17.6 0-9.7 7.6-17.6 17-17.6zm164.8 34.2h10v-54h-10v54zm0-54.1v54-54z" style="fill-rule:evenodd;clip-rule:evenodd;fill:#d71e3d"/></g><path id="path12" d="M192.9-23.6c0 22.4-18.1 40.5-40.5 40.5s-40.5-18.1-40.5-40.5 18.1-40.5 40.5-40.5 40.5 18.1 40.5 40.5z" style="fill-rule:evenodd;clip-rule:evenodd;fill:#fdcc09"/><path id="path14" class="st0" d="M187.6-10.5c-.4-.8-1.8-2.5-1.6-3.6 1 .1 2.6.1 3.2.2-.2.3-1.4 3-1.6 3.4zm72.2 12.1c-.1-.3-.2-.7-.3-.9l-.1-.2c-.1-.2-.2-.4-.2-.6 0-.1-.1-.2-.1-.3v-.2c.1-1.1-.2-1.7-.6-2.5-.4-.6-.8-.8-1.2-.9-.1.2-.3.4-.6.4h-.1c-.3-.1-.5-.4-.5-.7v-.3c0-.3-.1-.6-.2-.9-.4-.7-3.2-3-4.2-3-.9 0-1.8.5-2.4 1.3-.1.1-.3.2-.5.2h-.1c-.2 0-.4-.1-.5-.3-.1-.2-.2-.4-.2-.6-.2-.5-.3-1-.4-1.5l-.1-.4c-.3-1.3-.7-2.6-2.4-3.1-.1 0-.3-.1-.5-.1h-.8c-.3 0-.7 0-1.1-.1-.7-.1-1.2-.3-1.2-1.1v-.2l.2-.5c.1-.4.3-1 .5-1.7.3-1.4.3-2.6.1-3.7 0-.2 0-.4.1-.6.1-.1.3-.2.4-.2h.1c.7.1 1.3.1 1.4.1 3.7 0 9.5-2.4 9.5-8.8 0-3.7-3-7.2-5.5-9.5-.2-.2-.2-.4-.2-.6.1-.2.2-.4.4-.4 3.6-.9 5.5-3.3 5.5-6.7v-.2c0-.5 0-1.1-.1-1.8-.1-.9-.5-1.7-1-2.5-.1-.1-.1-.2-.3-.2h-.1c-.1 0-.3.1-.4.2-.3.2-.8.6-1.2 1-.4.4-1 .6-1.7.9-.4.2-.9.3-1.4.4-.3.1-.5.1-.8.2-1.7.5-3.6 1.2-5.6 3-.9.8-1.6 2.2-1.7 3.5-.1 1.1.4 2.2 1.3 3.5.8 1.1 1.8 2.1 2.9 3.1l.4.4c.4.4.8.8 1.2 1.1.6.6 1 1 1.3 1.5.9 1.1 1.3 1.9 1.3 2.7 0 1.7-1.2 2.9-3.1 2.9-2.1 0-3.7-.8-5.9-2.3-.3-.2-.7-.5-1-.7-.7-.5-1.5-1-2.3-1.5-1.5-1-3-1.7-4.5-2.4-.8-.4-1.6-.6-2.5-.9-.6-.2-1.3-.3-1.8-.4l-.3-.1c-1.4-.3-2.5-.6-3.7-1.4-.3-.2-.7-.5-1.1-.7-.6-.4-1.3-.9-1.9-1.3-1.3-.8-2.3-1.3-3.2-1.6-.3-.1-.6-.2-1-.2-.2 0-.3 0-.5-.1l-.4-.1c-.6-.1-1.1-.2-1.7-.5-.3-.2-.7-.4-1-.7-.3-.2-.5-.4-.8-.6l-.2-.1c-.6-.5-1.4-1-2.5-1.6-1.7-.9-3.3-1.3-4.7-1.7l-.3-.1c-.6-.1-1-.2-1.4-.4-.2-.1-.4-.2-.6-.2-.1 0-.2-.1-.2-.1l-.1-.1c-3.5-4.5-7.8-4.8-9-4.8h-.8c-1.4.2-3.1 1.4-4.6 2.6-.5.4-1.1.9-1.6 1.4-1.1 1-2.3 1.9-3.4 2.8-5.9 4.2-8 5.9-10.8 8.9-3.8 4.1-4.9 9.3-6 13.9l-.1.3c-.5 2.2-1 4.5-1.8 6.7-.9 2.5-2 4.4-3.5 5.9-.7.7-1.3 1.3-1.8 1.7-.3.3-.6.5-.8.6l-.2.1c-.6.4-.9 1-.7 1.6.2.7 1.2 1.5 2.8 1.5.2 0 .4.1.5.2.1.1.2.3.1.5-.1.3 0 .5.2.7.4.6 1.5.9 2.1.9h.3c2.8 0 5.2-1 7.2-3.1.1-.1.3-.2.4-.2.1 0 .3.1.4.2.8.7 1.8 1.1 3.1 1.1h.1c.6 0 1.2-.1 1.7-.1.3 0 .5-.1.8-.1h.7c.3 0 .8.1 1.3.3.4.1.8.3 1.3.5l.4.2c.9.3 2.2.8 3.1.8h.2c2.2-.1 3-1.8 3.3-2.8.1-.3.3-.4.6-.4s.5.2.6.5c.1.2.1.5.2.7.3 1.2.8 1.9 1.5 2.5.2.2.5.3.9.4.3.1.8.1 1.5.1.1 0 .3 0 .4.1l.3.3.4.4c.1.1.3.3.5.3 3.1 1.1 7.1 2.2 9.2 2.2h.1c2.8 0 3.7-2.6 4-3.8.1-.2.2-.4.5-.5 2.6-.5 4-4.4 4-5 0-1.2-.5-1.7-1.7-1.8h-5c-.2 0-.4-.1-.5-.3-.2-.3-.3-.4-.6-.4-.2-.1-.4-.2-.5-.5-.1-.2 0-.5.2-.6.1-.1.2-.2.3-.2.1-.1.3-.2.4-.2.6 0 1.8.1 2.9.1h1.4c.9 0 1.7-.1 2.5-.2 1.2-.1 2.5-.3 4.5-.3l4.1.4c.9 0 1.7-.1 2.4-.3h.2c.1 0 .2 0 .3.1.2.1.3.3.3.4.3 2.1 1 4 2 5.4.3.4.6.7 1.1 1 .2.2.5.3.7.5.1.1.3.2.4.3 1.1.7 2.5 1.6 4.2 1.6.5 0 .9-.1 1.4-.2.5-.1 1-.2 1.6-.2h.8c.7.1 1.3.2 1.8.4h.1c.8.2 1.6.5 2.3 1 .6.4 1.1.8 1.7 1.2l.1.1c1 .8 2.1 1.6 3.5 1.6h.5c.1 0 .2-.1.3-.1.2-.1.4-.2.7-.3.2-.1.5-.2.8-.2h.1c.2 0 .4.1.5.3.1.1.2.2.2.4.1.2.3.5.5.7.6.7 1.6 1.7 4 1.8h.6c1.2 0 2-.1 2.4-.2h.1c.1 0 .2 0 .3.1.3.2.5.3.8.3.6 0 1.6-.2 2.4-.5.5-.2.8-.4 1.1-.6.4-.3.6-.6.6-.9.1-.5.1-.8 0-1.1zM119.3-12.9c-.4.5-1 .7-1.6 1.7-1.1-.4-1.3-1.9-1.6-2.6.9-.2 3.1-.6 4.2-.7-.4.5-.8.9-1 1.6zm27.1 4.7c-1.1-.6-1.8-1.6-2.3-2.5-.2-.3-.4-.7-.6-1l-.2-.4c-.2-.4-.5-.9-.8-1.3-.1-.2-.3-.3-.4-.5l-.5-.5c-.1-.2-.3-.3-.4-.4-.1-.1-.2-.3-.2-.4-2-5.2-2.5-8.1-3.2-13.3-.4-2.7-2-4.8-4.6-8-.3-.4-.7-.9-1.1-1.4-.3-.3-.5-.7-.8-1.1-.9-1.1-1.6-1.9-2.1-2.4-.9-.8-1.8-1.5-2.5-2.1-1.1-.9-2-1.7-2.8-2.4-1.6-1.3-2.8-2.2-4.2-3.2-2-1.3-4-2-6.2-2s-3.8.7-4.4 1.1c-1.9 1.3-3.3 2.1-4.9 2.7-1.1.5-2.3.9-3.8 1.4-.5.2-1 .3-1.6.5-1.7.6-2.9 1.6-3.8 2.4l-.6.6-.6.6c-.4.4-.7.5-.9.6-.3.1-.7.2-1.3.2-.3 0-.6 0-1 .1h-.7c-2 .1-3.5 1.2-4.6 2-.5.4-1 .9-1.5 1.3l-.2.2c-.6.5-1 .9-1.4 1.2-1.4.9-2.7 1-4.2 1.2-.7.1-1.5.1-2.3.3-1 .2-1.9.5-2.8.9-1 .5-2.1 1.1-3.4 2-.6.4-1.1.8-1.7 1.2-.5.4-1 .7-1.5 1C64-28 62.2-27 60.1-27c-2 0-3.4-1.2-3.6-3-.2-1.6.6-3.2 2.3-4.5l.9-.7c.7-.5 1.3-1.1 1.9-1.5 1-.8 1.6-1.5 2.1-2.1 1.2-1.6 1.6-3.3 1-5.4-.5-1.9-2-3.2-4.5-4-.9-.3-1.8-.4-2.7-.6h-.3c-.3 0-.5-.1-.7-.1-.3-.1-.5-.1-.6-.1-1.4-.6-4.4-2.6-5-3l-.2-.2-.2.2c-.5.8-1 1.4-1.3 4.2-.4 3 2.1 6.7 6.4 7.4.2 0 .4.2.5.4.1.2 0 .5-.2.6-4.5 3.6-5.5 5.1-5.8 9.1-.1 2.5.7 4.9 2.4 6.7 1.8 1.9 4.5 3 7.6 3 .8 0 1.7-.1 2.7-.2h.1c.1 0 .3 0 .4.1.1.1.2.3.2.4.2 2.8.7 5.1 1.4 6.1.2.2.1.6-.1.8-.2.2-.5.4-.9.5-1 .4-2.4.6-3.9.6-.9 0-1.6.6-2.1 2-.2.4-.3.9-.5 1.4v.1c-.1.2-.1.4-.2.6-.1 0-.2.2-.2.3-.2.3-.5.6-.8 1-.1.1-.3.2-.4.2h-.1c-.2 0-.3-.1-.4-.3-.4-.8-1.2-1.3-2.1-1.5h-.1c-1.4 0-3.8 1.2-4.7 3.4-.2.1-.4.3-.6.3h-.1c-1.1.1-1.8.6-2.2 1.6-.2.4-.3.9-.3 1.3l-.2.3c-.1.3-.1.7-.2 1-.1.3-.2.5-.3.8-.1.1-.1.2-.2.4-.1.1-.1.2-.1.2-.2.5-.4.9-.2 1.7.1.4.4.7.9.9.4.2.8.4 1.4.5 1 .2 1.9.3 2.1.3.1 0 .3 0 .4-.1 0 0 .1-.1.2-.1.1-.1.3-.1.4-.1h.1l.5.1c.4.1.8.2 1.3.3h.1c.4.1.9.2 1.2.2.2 0 .4.1.5.1h.3c1.9-.1 2.7-.8 3.3-1.6.2-.2.3-.4.4-.6l.2-.4.2-.3c.2-.3.3-.5.5-.8.1-.2.3-.3.5-.3h.2c.2.1.4.1.6.1.3.2.7.3.9.3h.4c1.8 0 3.2-1 4.3-2l.4-.3c.2-.1.3-.3.5-.4.2-.2.5-.4.8-.6.5-.4 1-.5 1.5-.5h.1c.4 0 2.1.1 4.9.6h.4c.6 0 1.4-.2 2.4-.6.7-.3 1.5-.7 2.3-1.2l.6-.3h.1c.2-.1.5-.2.7-.3.5-.2 1.1-.6 1.7-1.3.3-.4.7-1.2 1.2-2.1l.5-.9c.3-.5.5-1.1.8-1.6.1-.2.3-.3.5-.3h.2c.9 0 1.9-.1 2.8-.3.4-.1.8-.1 1.2-.2.8-.1 1.5-.2 2.1-.3.1 0 .5 0 1 .1l1.1.1c1.4.1 2.5.1 3.5.1h1.5c.7-.1 1.4-.2 2-.3.2 0 .3-.1.5-.2.1 0 .2-.1.2-.1.2 0 .3.1.4.2.3.3.6.6 1 .9.2.2.3.4.2.7-.1.2-.3.4-.5.4h-.4c-.4.1-1.1.2-1.5.7-.1.2-.3.2-.5.2-.1 0-.2 0-.2-.1-.1 0-.2-.1-.3-.1-.2-.1-.4-.1-.5-.1h-.8c-.6 0-1.9 0-3 .2-.7.1-1.2.3-1.6.5-.7 0-1.2.4-1.1 1 .1 1.2 1.7 4.3 2.8 5.4.2.2.9.4 1.7.4h.3c.2 0 .4.1.5.3 1.1 2.2 3.1 3.7 4.9 3.7h.1c1.7-.1 6.3-1.7 9.5-3.2h.1c.1 0 .2 0 .3-.1.2 0 .4-.1.6-.1h.3c.7-.1 1.5-.2 2.1-.5.5-.3 1.3-1.3 2-2.6.1-.2.3-.3.5-.3h.1c.2 0 .5.2.5.4.1.3.2.5.3.7.5 1 1.5 1.6 2.9 1.6h.2c.9 0 2-.4 2.9-.7l.5-.2c.8-.3 1.5-.5 2.2-.6.2 0 .5-.1.8-.1h.5c.3 0 .6 0 .9.1h1.5c.8 0 1.5-.1 2.1-.4.9-.4 1.5-.8 2-1.2l.2-.1c.1-.1.2-.1.4-.1.1 0 .3.1.4.2 1.2 1.1 3.8 2.9 7.6 2.9h.4c.9 0 1.6-.3 2-.8.3-.3.3-.8.2-1.2 0-.2 0-.3.1-.5.1-.1.2-.2.4-.3.6-.1 1.1-.3 1.5-.7.3-.3.6-.7.6-1.1 0-.3-.1-.5-.3-.6-.4-.3-.6-.4-1.8-1.1z"/><path id="path16" class="st0" d="M132-47.9c0-11.2 9.1-20.3 20.3-20.3 11.2 0 20.3 9.1 20.3 20.3s-9.1 20.3-20.3 20.3c-11.2 0-20.3-9.1-20.3-20.3z"/><path id="path18" d="M137-36.9c5.9 4.3 14.3 5 20.8 1.4 7.1-3.7 11.4-11.2 10.7-19.4-.1-1.2-.3-2.3-.6-3.4 2 3 3.1 6.6 3.1 10.4 0 10.4-8.4 18.8-18.8 18.8-6.2 0-11.8-3.1-15.2-7.8z" style="fill-rule:evenodd;clip-rule:evenodd;fill:#d1d3d4"/><path id="path20" d="M146.7-43.2c-4.4-1.1-7.4-2.1-7.4-2.1-.5-4.5-.1-8.5-.1-8.5 1.9-1 7.1-3.3 7.1-3.3 2.5 2.8 4.8 6.5 4.8 6.5-1.1 2.2-4.4 7.4-4.4 7.4zm-7.2-18.4c-2.5 2.4-4.4 5.4-5.4 8.9.4-.6 1.4-2 2.5-3.4 1.2-2.7 2.5-4.8 2.9-5.5zm19.7 10.9s1.6-3.4 3.6-6.2c0 0 3.8 1.8 5.6 3.3 0 0 .7 2 .2 8 0 0-2.3 1.3-5.6 2.1.1 0-2.2-3.8-3.8-7.2zm-8.5 14 8.1-.2 1.6 4.4c-3.1 1.8-6.8 2.8-6.8 2.8-3.9-.8-6.1-2.5-6.1-2.5l3.2-4.5zm1.6-30c2.5 0 4.8.5 7 1.4-.1.3-.3 1.3-1.1 2.6-3.9-.5-8.3-.1-8.3-.1l-3.6-2.9c1.9-.6 3.9-1 6-1zm-12.1 33.2c.2-.1.5-.4.8-.6 0 0-2.9-4.2-4.1-6.6 0 0-1.9-2-2.9-3 .9 4 3.1 7.6 6.2 10.2z" style="fill-rule:evenodd;clip-rule:evenodd;fill:#101c44"/><path id="path22" class="st7" d="m135.5-18.4-.1.3-.1.3c-.1.3-.3.4-.5.5-.1 0-.3 0-.4-.1-.1-.1-.2-.2-.2-.4v-.3l-.1-1.1c-.1-.5-.2-.9-.5-1.2l-.5-.6-.5-.6c-.4-.4-.8-.6-1.2-.6-.3.1-.6.3-.9.6l-.4.5-.3.4c-.1.2-.4.1-.4.1v-.1c-.1-.2-.1-.4-.1-.6 0-.3.1-.6.2-.9l.3-.6.3-.7v-.1c.1-.1.2-.3.3-.6l.1-.2.2-.5c.3-.6.7-.8 1.4-.5.5.3.8.7 1 1.1l.2.3.2.3.4.5c1.1 1.3 1.7 2.5 1.7 3.7.1.4 0 .8-.1 1.1zm-4.3 9.6c-.7.2-1.4.3-2.2.3l-.1-.1-.2-.1c-.1-.1-.2-.2-.1-.4.3-.9 1.2-2 2.4-2.2H131.6c.1 0 .3.1.4.4v.6c-.2.6-.3 1.2-.8 1.5zm-13.5-23.3s-.1 0 0 0c-.1 0-.1 0 0 0h-.1c-.1.1-.3.2-.5.1v-.1c-.3-1.4-.6-2.9-1.2-4.3l-.3-.6-.1-.2-.3-.4c-.2-.4-.4-.8-.1-1.4.3-.3.7-.3 1-.2.6.4 1 1.1 1.3 1.6.4.8.5 1.9.5 3 .1.8 0 1.7-.2 2.5-.1 0 0 0 0 0zm27.8 24.9c-2.1-1.2-3-3.6-4.3-5.4-.5-.7-1.3-1.1-1.7-1.8-1.5-4.1-2.8-8.3-3.2-13-.3-1.2-.6-2.4-1.2-3.5-1.9-3.1-4.4-5.9-6.8-8.8l-.7-.7-8.4-7c-1-.8-2.2-1.3-3.4-1.8-1.8-.7-4.2-.5-5.9.2-1.8 1-3.4 2.3-5.3 3-2.8 1.2-5.9 1.5-8.2 3.6-1.4 1.2-2.5 3.1-4.6 2.8-2.3-.1-4.4.7-6.1 2.2-1.6 1.4-3 3.1-5.1 3.5-1.8.7-3.9.4-5.7 1.1-2.9.7-5.1 3-7.6 4.7-2.4 1.4-4.8 2.9-7.8 2.9-2-.1-3.9-1.5-4.5-3.4-.6-2.2.1-4.5 1.8-5.9 1.8-2.2 4.7-3.4 6.1-5.9.7-1.3.6-3.4-.4-4.7-1.9-1.9-4.6-2-7-2.6-1.6-.4-2.8-1.6-4.1-2.4-.5.8-.7 1.7-.6 2.7.3 2.2 2 4.2 4.1 5 1.2.5 2.7.1 3.9.4.4.1.7.5.7.9-.1.4-.1.7-.4 1-2 1.7-4.1 3.3-5.7 5.3-1.8 1.9-2 5.3-1.1 7.7 1 2.8 3.9 4.6 6.7 4.9 2 .3 3.8-.2 5.7-.6.2 0 .4.2.5.4.2 1.6-.1 3.1.3 4.6.3 1.4.8 2.3 1.3 3.7.1.5 0 1-.3 1.3-1 .8-2.1 1.3-3.2 1.8l-2.8.2-.5.2c-1 1.2-1.1 2.4-1.7 3.8-.8 1.4-2.4 2.1-3.7 2.9-.4.7-.9 1.4-1.5 1.9-.5.4-1 .5-1.6.6-1 1.1-1.2 2.6-1.4 4.1 1.6.1 3.2 1 4.7.1 1.3-.6 1.6-2.2 2.6-3.1.8-.8 1.9-.2 2.9 0 1.4.1 2.4-.9 3.5-1.4.8-.5 1.5-1.5 2.3-2 1.6-.8 3.9-.4 5.6 0 1.3.4 2.8.1 3.9-.4 1.1-.7 2.1-1.5 3.4-1.8 1.1-.6 1.6-1.8 2.1-2.8.4-1 1.3-1.7 1.2-2.8-.3-.2-.6-.8-1-.7-.5.7-.9 1.5-1.5 2.2-2.6 3.5-4.6 3.8-9.8 3.8-3.9-.1-7.3 1-10 4-.2.1-.4 0-.6-.1-.1-.4.2-1.1.4-1.4 2.4-3.4 6.1-4.1 9.9-4.2 2.1-.1 4.1-.5 5.9-1.4 2-1 3.4-2.6 4.2-4.6.5-2.2.6-4.6 1.2-6.8.1-.2.6-.4.8-.3.2 0 .6.2.6.5-.4 2.2-1.1 4.8-.2 6.9 1.7 2.2 4.8 1 7.1.9 2.4-.2 4.3 0 6.6.1 1.1 0 2 .2 2.9-.5.2-.4.3-.9.3-1.3-.1-.6-.6-1 0-1.6.2-.1.7 0 .8.1.3.9.5 1.8 1 2.6 1.1 1.5 2.8 2.6 4.4 3.4 1.5 1 2.7 2.5 2.8 4.3 0 .9-.8 1.6-1.6 2-1.2.6-2.5 1.1-3.9 1-1.9-.9-2.4-2.9-3.6-4.4-.6-.9-1.6-1-2.5-1-1 .1-2.1.1-3 .5-.2.2-.3.5-.3.8.6 1.2 1.3 2.3 2.1 3.5.8.5 1.9-.3 2.7.6.6.9 1 2 1.9 2.7.9.8 2.2 1.1 3.4.6 2.6-.8 5.2-1.7 7.7-3h.8c1-.1 2.1 0 2.8-.8.8-1.1 1.4-2.2 2-3.4.6-.8.3-2.1.1-2.9-1.2-1.5-1.9-3.2-2.5-4.9-.6-.2-1.1-.5-1.8-.5-.3.1-.8.1-1 .4l2.8 5.5c.2.4.4 1 .3 1.6-.4 1.2-1 2.3-1.9 3.2-.2.1-.4.2-.5 0 .3-1.2.9-2.5.8-3.9l-2.7-4.9c-.3-.7-.9-1.3-.8-2.1 0-.4.3-.6.6-.7 1.2-.4 2.7-.3 3.6-1.3 1.2-1.9 1.5-3.7 1.8-5.9.1-.1.4-.4.6-.4.2-.1.5.2.6.3.4 2.4-.1 4.9-1.6 6.8-.1.2-.2.6.1.7 1.3.4 2.8 0 3.9-.6 1.5 0 2.8-.3 4.1-.5.1.1.3.2.3.4-.9 1-1.4 2.1-1.6 3.4-1.1 1.1-2.6 2.1-2.7 3.6.2.8.9 0 1.3.1.2 0 .4.2.4.4L119.4-7c-.6.9.1 2 .1 2.9.2.7 1.1 1.1 1.8 1.1 1.6-.1 3-.7 4.4-1.2 1.6-.7 3.5-.6 5.2-.4 1.7-.1 2.9-1.2 4.1-2.3.7 0 1.3.5 1.7 1 1.9 2.1 4.4 2.9 7.2 2.9l.2-.1c.2-.2.1-.5-.1-.6l-1.7-.8c-1.2-.7-2.6-1.7-3-3-.4-1.2-1-2.4-1.7-3.6-.2-.6-.8-1-1.1-1.6.1-.1.1-.2.2-.1 1.8.6 2.9 2.4 3.8 4.1 1.3 1.9 3.3 3.5 5.8 3l.2-.2c.1-.1.1-.3 0-.4l-1-.9z"/><path id="path24" class="st7" d="M51.6-3.3c1.1-.6 1.8-1.8 2.4-2.9-.1-.4-.5-.7-.8-1-.2-.2-.5 0-.8 0-.8.7-1.6 1.2-2.4 1.7-.4.2-.2.8-.3 1.2 0 .4.4.6.6.8.3.3.8.4 1.3.2z"/><path id="path26" class="st7" d="M47.9-3.2c-.6.3-1.2.8-1.3 1.5-.2 1.1.1 2.2-.8 3 0 .2-.2.5 0 .7.8.2 1.5.6 2.5.7.4-1.4.7-2.9 1.2-4.1v-.4c-.5-.5-.9-1.2-1.6-1.4z"/><path id="path28" class="st7" d="M101.5-6.9c.7.8.7 2 1.5 2.6 1.1.2 2-.2 2.8-.9.5-.4-.2-.9-.3-1.3-.5-.7-.1-2-1.3-2.1-1.1.2-2.3.2-3.4.2l-.3.2c-.1.7.8.7 1 1.3z"/><path id="path30" class="st7" d="M257.8.5c-.2-.8 0-1.9-.5-2.7-.5-.4-.9-.9-1.5-.7-.5.4-1.2.9-1.1 1.7.4 1.3.7 2.2 1 3.5.1.2 0 .7.4.7l2.3-.7c.2-.7-.5-1.2-.6-1.8z"/><path id="path32" class="st7" d="m192.8-40.5-.2.3-.2.3-1.1 1-1.2 1.1c-.9.9-1.5 1.6-2 2.3-.4.5-.7 1.1-.9 1.7-.1.2-.3.2-.4.1h-.1v-.1c-.1-.2-.1-.5-.1-.7 0-.2 0-.4.1-.6l.2-.9.1-.4c.7-1.8 2.2-3.7 4.2-5.2.3-.2.7-.3 1.1-.2.2.1.4.2.5.4.1.1.1.3.1.4 0 .3 0 .4-.1.5.1 0 0 0 0 0zm-14.4 20.1-.1.3-.3.3c-.1.1-.3.1-.5 0s-.3-.2-.5-.4l-.2-.2-.1-.2c-.2-.3-.3-.5-.7-.5-.3 0-.6.1-.8.3l-.2.2-.1.1-.4.3-.5.4-.2.2-.7.7c-.5.5-.8 1-.9 1.5l-.1.4v.4c-.1.2-.1.5-.4.7-.2.1-.4 0-.5-.1-.1-.1-.2-.2-.2-.4-.1-1.7.5-3.3 1.6-4.4.6-.5 1.1-1.1 1.5-1.6l.5-.6.9-1.1.1-.1c.7-.1 1.1.5 1.2.7.6.8 1.1 1.6 1.5 2.7v.2c.1.1.1.2.1.2zm-.8 12.3c-.3.2-.5.3-.9.3l-.7-.1H175.7c-.7-.4-.8-1.1-.9-1.9 0-.3.1-.5.3-.6.9 0 1.6.3 2.1.8l.1.3.2.4h.1-.1c.1.2.1.3.1.5.1 0 0 .2 0 .3zm75.3 6.7c-1.8.1-2.7-1.8-3.8-3-.9-1-2.6-1.6-2.6-3.1-.3-.6-.4-1.6-.7-2.3-.2-.6-.5-1.6-1.3-1.7-1.5-.2-3.4.2-4.3-1.2-1-1.1.1-2.3.3-3.3.4-1.3.5-3 .2-4.4 0-.8-.6-1.4-.4-2.2.4-.7 1.2-.2 1.7-.1 2 .6 4.3.3 6.1-.5 2.5-1.2 4.5-3.7 4.4-6.6-.4-3.7-3-6.8-5.9-9.2-.5-.5-1.2-1-1.4-1.6-.1-1.5 1.6-.7 2.4-1.1 1-.2 2-.5 2.8-1.1 2.2-1.5 2.6-4 2.2-6.5-.1-.2-.1-.5-.4-.5-.4.3-.8.8-1.3 1.1-1.4.8-3.2.7-4.7 1.4-1.8.8-4 1.9-4.8 3.9-.2 1 0 2.1.5 2.9 2.2 3.5 6.8 5.7 7.6 9.9.3 1.7-.6 2.9-1.9 3.9-2 1.2-5 .8-6.9-.3-3.8-1.9-7.1-5.1-11.3-6.4-2.6-1.2-5.8-.9-8.1-2.7-1.7-1.1-3.3-2.6-5.3-3.1-1.3-.5-2.9-.4-4.1-1.1-1.3-1.1-2.6-2.2-4.1-2.9-2.1-1-4.3-1.6-6.6-2.1-1.3-.3-1.8-1.8-2.9-2.5-1.9-1.5-4-2.5-6.5-2.3-1.1.1-1.9.8-2.7 1.5-5.4 4.7-11.6 8-16.6 13.4-3.3 3.4-4.2 7.8-5.4 12-1.8 6.4-2.5 13.4-8.9 17.3-.1.2-.1.5.1.6 1.7.4 3.4-.2 4.5-1.4 1.1-1.7 2.3-3.4 3.8-5l.4-.2c.2 0 .4.1.3.4-.4 1.4-1.7 2.4-2.1 3.9-.6 1.7-2.2 3-3.6 4.2v.2c0 .2.2.4.4.4 3.1.1 5.3-2.1 7.4-4.2.2-.2.5-.2.8-.1.9.7 1.8 1.8 3 2 1.3-.2 2.6-.4 4-.2 1.9.6 3.7 1.3 5.6 2 1 0 1.7-1 2.2-1.7.4-.9-.2-1.8-.1-2.7.5-.3 1 .1 1.5-.1.2-.1.4-.4.4-.6-.4-1.6-1.8-2.8-2.3-4.4-.7-1.9-3-3.1-3.4-5.2.1-.1.3-.4.5-.2 1.5 1.1 2.9 2.5 4.7 2.8 1.4.1 2.9.3 4.3.2.2-.1.4-.3.3-.6-.6-1.3-1.2-2.5-1.5-3.9-.5-1.7-.8-4.1-.3-6 .1-.1.6-.4.8-.3.3.1.6.4.7.7.2 3-.1 5.8 1.7 8.1.8 1.2 2.1 1.5 3.1 2.4.4.5.4 1.3.2 1.9l-2.2 3.2c-.5.7-1 1.5-1.2 2.3-.2.9-.1 1.7 0 2.6-.1.1-.2-.1-.4-.2-.6-1.2-1.2-2.7-.6-4l2.7-4.2.1-.3c-.6-.3-1.3-.6-1.9-.8-.3.1-.5.5-.7.7L188.6-9c-.2.6-.4 1-.2 1.6.1.7.3 1.4.6 2 .2 1 .4 1.7.8 2.5.7.7 1.6.1 2.4.3.8.2 1.2 1.2 2 1.5 1.9.6 4 1 5.9 1.7 1 .3 2.4.7 3.3-.1 1.2-.7 1.6-2 1.8-3.2.4-.5 1.2-.3 1.7-.5 1.1-.7 1.4-2 2.2-2.9l.1-.5c-.1-.3-.4-.5-.7-.6H205c-1.7.2-1.8 2.1-2.5 3.2-.4.7-1.2 1-2 .9-1.7-.5-3.8-.7-4.6-2.5-.1-.5-.1-1 .2-1.3.9-1 1.9-2.2 3-3 1.6-.3 3.1-1.5 3.9-2.9.4-.6.4-1.5 1.1-1.9.2 0 .7-.1.8.2.3 1-.3 1.8-.6 2.6 3.9.4 6.8-.7 10.6-.6 1.6 0 3 .2 4.6.1 1.6-.1 3.3-.7 3.8-2.3.7-2.1-.3-4.5-.6-6.4l.4-.3c.2-.1.7.1.8.2.7 1.9 1.1 4.1 1.4 6.2.3 1.8 1.1 3 2.1 4.5 1.8 2.7 5 3.7 8.1 3.1 3.8-.3 7.1 1.7 9.4 4.7v.2c-.1.1-.2.3-.4.3-2-1.6-4-3.2-6.6-3.5-2.6-.5-5 .9-7.7-.2-3.3-1.1-4.7-3.1-6-6.3h-.3c-.2 0-.4.2-.4.5l.4 2.2c.4 1.8 1 3.9 2.9 4.7 1.5.9 2.9 2.2 4.8 1.7 3.2-.7 6.5.2 9 2 .8.5 1.4 1.3 2.3 1.6 1 .4 2.1.2 2.9-.5 1.8-.6 2.2 1.7 3.5 2.5 1.1 1.1 3.3.6 4.7.6v-.2c-.1-1.9-.5-3-1.1-4.3z"/><path id="path34" class="st7" d="M201.8-8c-1 .2-2.1 0-3 .1-.4.6-.8 1.4-.7 2.3.1.9 1.1 1 1.7 1.2.6.1 1.5.3 1.8-.4.4-.9.7-1.9.8-2.9-.1-.2-.4-.3-.6-.3z"/><path id="path36" class="st7" d="M252-6.9c-.7-.6-1.5.3-1.8.8.2.9 1 1.6 1.5 2.3.3.4.7.7 1.2.7s.9-.2 1.2-.5c.2-.3.5-.7.4-1.2-.6-.8-1.6-1.4-2.5-2.1z"/><path id="path38-3" class="st8" d="m102.9 13.9 1.7 2.1 7.1-5.8-1.7-2.1-7.1 5.8zm-9.2 7.6 1.7 2.1 7.1-5.8-1.7-2.1-7.1 5.8zm16.7-17.3 3.5 4.3c1 1.2.8 2.9-.4 3.9l-6.5 5.3c-1 .8-1.7.7-2.4.4.2.7.1 1.5-1.1 2.5l-6.3 5.1c-1.2 1-2.9.8-3.9-.4L89.8 21l20.6-16.8z"/><path id="path42-1-0" class="st8" d="m123.3 30.8 2.5 1.2 4-8.2-2.5-1.2-4 8.2zm1-8.4c1-2 3.5-2.9 5.5-1.9s2.9 3.5 1.9 5.5l-9.9 20.3-2.5-1.2 5.2-10.7-2.5-1.2-5.2 10.7-2.5-1.2 10-20.3z"/><path id="path4941-12" class="st9" d="m161.6 51.7 2.7-.4-1.2-7.6c-.4-2.3-1.3-7-1.8-9.1h.1c1.7 5.7 3.9 11 5.7 16.3l2.6-.4-4-26.3-2.7.4 1.2 7.6c.4 2.3 1.3 7 1.8 9.1h-.1c-1.7-5.7-3.9-11-5.7-16.3l-2.6.4 4 26.3z"/><path id="rect46-3-0-4-3" transform="rotate(-20.495 176.2 35.944)" class="st8" d="M174.8 24.1h2.9v23.8h-2.9z"/><path id="rect46-3-0-4-7-1" class="st8" d="m168 26.3-1-2.7 7.9-2.9 1 2.7z"/><path id="rect46-3-07-3" transform="rotate(-29.495 184.415 30.54)" class="st8" d="M183 17.2h2.8v26.7H183z"/><path id="path4941-1-1" class="st9" d="m198.5 37.4 2.1-1.7-4.9-6c-1.5-1.8-4.7-5.3-6.2-7h.1c4.4 4.1 9 7.4 13.3 11.1l2-1.7L188 11.5l-2.1 1.7 4.9 6c1.5 1.8 4.7 5.3 6.2 7h-.1c-4.4-4.1-9-7.4-13.3-11.1l-2 1.7 16.9 20.6z"/><path id="path4949-6" class="st9" d="m211.9 20.1-1.7 2.2-16.5-13.1 1.7-2.2 16.5 13.1zm-4.3 3.6c1.8 1.4 4.4 1.1 5.8-.7 1.4-1.8 1.1-4.4-.7-5.8L198 5.6c-1.8-1.4-4.4-1.1-5.8.7-1.4 1.8-1.1 4.4.7 5.8l14.7 11.6z"/><path id="path40-1-2" class="st8" d="m112.2 23.4 2.2 1.7 5.6-7.2-2.2-1.7-5.6 7.2zm5.2-11.1 4.3 3.4c1.2.9 1.4 2.7.5 3.9l-5.2 6.6c-.8 1-1.5 1-2.3.9.4.6.5 1.4-.5 2.7l-5.4 7c-.5.6-.6 1.2-.7 2l-2.2-1.7c.1-.6.3-1.4.7-1.9l6.1-7.8-2.2-1.7-7.3 9.4-2.2-1.7 16.4-21.1z"/><path id="path10-6-9" class="st9" d="m138.6 46.8 2.5-10.3-4-1-.7 2.9 1.1.3-2 8.3-2.3-.5 4.7-19.6 2.3.6-1 3.9 2.9.7.7-3c1.3-5.4-6.8-7.4-8.1-2l-4.3 17.7c-1.5 5.6 7.1 7.7 8.2 2z"/><path id="path42-1-8-0" class="st8" d="m148.8 37.4 2.8.1.5-9.2-2.8-.1-.5 9.2zm-2.3-8.2c.1-2.3 2.1-4 4.3-3.9 2.3.1 4 2.1 3.9 4.3l-1.2 22.7-2.8-.1.6-11.9-2.8-.1L148 52l-2.8-.1 1.3-22.7z"/></g></svg>